<svg width="211" height="209" viewBox="0 0 211 209" fill="none" xmlns="http://www.w3.org/2000/svg">
<path d="M95.5331 7.05275C98.4335 -2.35075 111.744 -2.35078 114.645 7.05273L132.325 64.3745C133.618 68.5672 137.493 71.4272 141.881 71.4272H200.158C209.719 71.4272 213.828 83.5574 206.236 89.3682L158.208 126.127C154.884 128.671 153.497 133.016 154.73 137.016L172.861 195.8C175.732 205.105 164.961 212.607 157.228 206.688L111.167 171.435C107.58 168.689 102.598 168.689 99.0111 171.435L52.9498 206.688C45.2168 212.607 34.4461 205.105 37.3163 195.8L55.4476 137.016C56.6812 133.016 55.2934 128.671 51.9696 126.127L3.94161 89.3682C-3.65064 83.5574 0.458657 71.4272 10.0194 71.4272H68.297C72.6846 71.4272 76.5597 68.5672 77.8528 64.3746L95.5331 7.05275Z" fill="#2B8DD8"/>
</svg>
